# xmcd CD database file
#
# Track frame offsets:
#	150
#	43326
#	77174
#	117229
#	135970
#
# Disc length: 2127 seconds
#
# Revision: 0
# Processed by: cddbd v1.5.2PL0 Copyright (c) Steve Scherf et al.
# Submitted via: CDex 1.51
#
DISCID=3b084d05
DTITLE=Miroslav Vitous - Purple
DYEAR=1900
DGENRE=Jazz
TTITLE0=Purple
TTITLE1=Mood
TTITLE2=Water Lilie
TTITLE3=Dolores
TTITLE4=It Came from Knowhere
EXTD=
EXTT0=
EXTT1=
EXTT2=
EXTT3=
EXTT4=
PLAYORDER=
